<svg xmlns="http://www.w3.org/2000/svg" width="731" height="765" viewBox="0 0 731 765">
<g>
<path d="M 394.33 537.94 C378.72,540.23 356.01,541.13 342.47,540.00 C287.57,535.43 234.75,510.83 195.46,471.54 C164.57,440.65 144.41,405.02 133.47,362.00 C131.05,352.47 127.94,334.00 128.76,334.00 C129.00,334.00 133.69,336.52 139.18,339.60 C149.77,345.54 175.15,358.33 178.50,359.41 C179.83,359.84 182.60,364.38 186.77,372.97 C200.31,400.83 219.60,425.03 244.00,444.74 C273.86,468.86 312.43,484.94 353.00,490.17 C364.91,491.71 391.48,491.65 404.00,490.06 C432.63,486.42 461.13,476.86 484.53,463.04 C488.26,460.84 490.27,459.48 492.48,458.81 C495.83,457.79 499.65,458.32 510.57,459.86 C511.94,460.05 513.41,460.26 515.00,460.48 C520.78,461.28 527.53,461.96 530.00,461.99 L 534.50 462.05 L 523.50 472.82 C517.45,478.74 509.29,486.13 505.37,489.24 C472.43,515.35 434.22,532.11 394.33,537.94 ZM 286.60 694.43 C275.39,697.35 262.25,697.18 252.40,693.99 C230.88,687.01 217.77,671.05 216.28,650.00 C215.00,631.79 224.99,613.18 240.56,604.81 C253.05,598.08 272.85,595.83 287.08,599.52 C314.95,606.74 330.66,633.13 323.17,660.14 C318.42,677.28 305.32,689.55 286.60,694.43 ZM 166.57 285.75 C166.53,293.58 166.26,300.00 165.96,300.00 C164.39,300.00 139.42,284.78 129.75,277.92 C127.81,276.55 133.19,251.62 139.58,232.38 C143.89,219.38 153.62,198.74 160.97,187.00 C195.95,131.09 251.56,93.60 317.00,81.79 C327.76,79.85 332.98,79.53 354.50,79.52 C386.52,79.49 402.61,81.99 425.76,90.59 C435.04,94.04 440.62,97.08 435.00,95.63 C428.77,94.02 407.61,90.06 399.00,88.90 C393.77,88.19 381.17,87.65 371.00,87.70 C336.62,87.86 308.68,94.37 279.08,109.11 C236.97,130.08 205.80,161.35 186.00,202.50 C172.91,229.69 166.72,256.25 166.57,285.75 ZM 623.27 450.60 C611.48,452.47 569.36,453.28 554.00,451.93 C487.40,446.06 403.38,427.64 325.33,401.82 L 304.16 394.81 L 307.33 388.92 C309.25,385.35 311.16,383.03 312.18,383.02 C313.11,383.01 320.31,385.23 328.18,387.96 C389.50,409.21 464.45,427.54 518.36,434.47 C602.05,445.23 648.83,435.03 641.91,407.55 C639.37,397.48 623.98,379.31 606.69,365.98 L 600.88 361.50 L 601.51 357.00 C602.47,350.17 603.12,348.00 604.21,348.00 C604.75,348.00 608.86,350.56 613.35,353.68 C647.41,377.41 668.05,402.18 667.98,419.23 C667.91,435.37 652.94,445.88 623.27,450.60 ZM 226.91 358.00 C226.85,359.38 226.51,361.46 226.15,362.64 L 225.50 364.79 L 220.50 362.82 C208.63,358.15 190.98,350.01 170.00,339.53 C116.01,312.56 83.76,291.58 59.90,267.88 C39.88,248.01 32.83,230.36 39.38,216.50 C45.48,203.60 60.83,196.54 91.55,192.51 C102.90,191.03 136.24,190.42 140.72,191.62 L 142.94 192.22 L 138.61 199.73 L 125.06 200.43 C85.83,202.46 67.40,211.57 67.65,228.80 C67.82,240.68 80.51,258.48 100.81,275.30 C125.85,296.05 178.08,326.56 220.49,345.21 C225.45,347.39 229.62,349.29 229.77,349.44 C229.92,349.58 229.36,351.01 228.52,352.60 C227.69,354.20 226.96,356.62 226.91,358.00 ZM 381.76 662.25 L 381.50 694.50 L 372.45 694.78 C367.47,694.94 363.09,694.75 362.70,694.37 C362.32,693.98 362.00,672.37 362.00,646.33 L 362.00 599.00 L 381.89 599.00 L 401.12 622.09 C419.59,644.27 420.41,645.11 421.93,643.18 C422.79,642.08 431.60,631.69 441.50,620.10 L 459.50 599.02 L 469.26 599.01 L 479.02 599.00 L 478.76 646.75 L 478.50 694.50 L 468.75 694.79 L 459.00 695.07 L 459.00 662.54 C459.00,644.33 458.61,630.00 458.12,630.00 C457.36,630.00 436.48,654.57 426.03,667.75 C420.42,674.84 420.21,674.70 400.74,651.06 C391.26,639.54 383.17,630.09 382.76,630.06 C382.36,630.03 381.91,644.51 381.76,662.25 ZM 556.11 192.75 C552.70,195.61 548.69,194.02 538.82,185.92 C504.81,157.98 501.20,155.28 500.96,152.31 C500.93,151.96 500.95,151.61 500.97,151.20 C500.98,150.91 501.00,150.59 501.00,150.23 C501.00,146.73 502.14,145.08 513.64,131.94 C536.00,106.38 545.15,97.09 549.15,95.86 C556.05,93.75 558.90,95.17 575.15,108.80 C583.48,115.78 592.01,122.85 594.10,124.50 C599.95,129.12 601.92,137.74 598.32,143.03 C594.49,148.66 559.39,190.01 556.11,192.75 ZM 539.99 674.00 L 529.54 695.00 L 519.27 695.00 C512.26,695.00 509.00,694.64 509.00,693.86 C509.00,693.24 517.16,676.70 527.14,657.11 C551.81,608.70 556.07,600.62 557.38,599.75 C557.99,599.33 562.72,599.11 567.88,599.25 L 577.25 599.50 L 581.97 608.50 C584.56,613.45 593.80,631.45 602.50,648.50 C611.19,665.55 620.04,682.58 622.15,686.34 C624.27,690.11 625.75,693.59 625.44,694.09 C625.13,694.59 620.18,695.00 614.43,695.00 L 603.99 695.00 L 593.54 674.00 ZM 158.83 694.37 C138.64,699.63 114.64,695.33 96.18,683.17 C95.16,682.50 95.96,680.70 99.61,675.40 C102.22,671.60 104.53,668.29 104.73,668.04 C104.93,667.78 105.86,668.11 106.80,668.78 C123.16,680.37 152.01,683.14 161.16,674.00 C163.24,671.91 164.00,670.18 164.00,667.51 C164.00,659.36 159.53,656.80 140.36,653.98 C118.76,650.81 111.19,648.39 104.10,642.43 C99.82,638.83 98.09,635.17 97.36,628.17 C96.46,619.56 98.82,613.25 105.02,607.67 C119.02,595.09 149.10,593.86 173.42,604.89 C178.16,607.04 179.93,608.32 179.40,609.22 C176.10,614.80 170.74,623.00 170.38,623.00 C170.14,623.00 167.24,621.64 163.95,619.97 C143.30,609.55 113.07,613.92 117.55,626.67 C119.07,630.99 125.00,633.62 137.50,635.52 C162.50,639.31 169.78,641.53 176.89,647.55 C181.29,651.27 184.98,659.22 184.98,665.00 C185.00,679.33 175.45,690.05 158.83,694.37 ZM 507.41 118.13 C501.80,123.87 500.26,124.82 497.59,124.22 C496.53,123.98 491.19,120.12 485.71,115.64 C480.23,111.17 474.34,106.40 472.63,105.06 C470.91,103.71 461.74,96.13 452.25,88.20 C438.83,76.98 435.00,73.25 435.00,71.41 C435.00,68.03 460.72,38.01 463.62,38.01 C464.89,38.00 472.20,43.37 481.66,51.25 C490.42,58.54 503.61,69.45 510.98,75.50 C518.36,81.55 525.20,87.29 526.20,88.25 C529.28,91.24 528.37,94.45 522.50,101.37 C519.47,104.93 517.00,108.05 517.00,108.29 C517.00,108.53 518.01,108.56 519.25,108.36 C520.59,108.14 522.68,108.97 524.42,110.42 L 527.35 112.85 L 524.62 116.43 C523.12,118.39 521.55,120.00 521.13,120.00 C520.71,120.00 518.55,118.45 516.34,116.56 L 512.31 113.11 ZM 657.13 227.95 C648.95,237.33 645.13,241.00 643.54,241.00 C641.20,241.00 636.02,236.95 601.67,208.23 C585.49,194.71 581.00,190.44 581.00,188.59 C581.00,187.25 583.05,183.74 585.73,180.48 L 590.46 174.73 L 586.29 171.12 L 582.11 167.50 L 584.81 164.24 C586.29,162.45 587.97,160.99 588.55,160.99 C589.13,161.00 591.06,162.49 592.82,164.32 L 596.04 167.64 L 601.91 161.77 C607.14,156.54 608.08,155.98 610.64,156.62 C612.21,157.01 619.35,162.12 626.50,167.99 C633.65,173.85 647.04,184.64 656.25,191.95 C666.34,199.96 673.00,205.93 673.00,206.97 C673.00,209.30 670.52,212.57 657.13,227.95 ZM 564.97 331.35 C563.84,335.01 562.83,338.00 562.71,338.00 C562.59,338.00 558.80,335.77 554.28,333.05 C536.27,322.22 494.57,300.91 469.00,289.46 C382.68,250.82 291.64,221.40 220.22,209.06 C210.71,207.42 202.49,205.81 201.95,205.47 C201.37,205.11 201.83,203.65 203.07,201.90 C203.63,201.11 203.90,200.49 204.36,200.07 C205.70,198.85 208.68,199.43 225.75,202.75 C227.93,203.17 230.34,203.64 233.00,204.16 C292.12,215.58 369.96,238.08 425.00,259.65 C463.66,274.79 479.63,281.54 504.50,293.21 C519.30,300.16 565.40,323.30 566.76,324.47 C566.91,324.59 566.10,327.69 564.97,331.35 ZM 263.10 678.45 C277.47,682.39 295.08,674.18 301.13,660.71 C303.02,656.51 303.47,653.76 303.48,646.50 C303.50,638.14 303.26,637.05 300.09,631.20 C293.82,619.64 283.95,614.55 269.02,615.17 C249.96,615.97 238.26,626.95 237.23,645.00 C236.28,661.70 245.49,673.61 263.10,678.45 ZM 281.20 394.82 C271.03,399.19 261.94,398.20 252.01,391.63 C240.93,384.29 237.33,368.08 243.91,355.17 C250.47,342.32 268.68,336.69 282.23,343.33 C292.23,348.22 297.35,356.70 297.42,368.50 C297.48,380.10 291.02,390.59 281.20,394.82 ZM 564.02 419.75 C561.69,423.75 560.43,424.97 558.73,424.86 C551.27,424.39 535.44,422.76 535.11,422.44 C534.89,422.22 536.69,419.55 539.11,416.48 C546.45,407.17 555.86,392.99 560.98,383.50 C584.21,340.44 590.99,287.90 579.54,239.60 C578.22,234.04 576.81,228.64 576.40,227.59 C575.89,226.28 576.02,225.89 576.79,226.37 C578.15,227.21 584.04,245.18 586.85,257.04 C599.72,311.55 591.04,373.44 564.02,419.75 ZM 537.96 210.81 C536.84,212.02 535.30,213.00 534.55,213.00 C532.26,213.00 520.83,202.88 521.41,201.37 C522.40,198.80 520.20,199.99 517.32,203.58 C514.65,206.91 514.26,207.08 511.78,205.95 C509.40,204.86 508.76,205.02 505.92,207.42 C503.49,209.46 501.85,210.03 499.11,209.80 C495.98,209.54 495.46,209.12 495.18,206.69 C495.00,205.14 495.61,202.72 496.53,201.31 C497.87,199.27 497.98,198.26 497.10,196.32 C496.07,194.06 497.03,190.00 498.59,190.00 C498.87,190.00 502.23,192.49 506.05,195.54 C509.87,198.59 513.00,200.66 513.00,200.13 C513.00,199.61 510.07,196.49 506.48,193.20 L 499.96 187.23 L 506.08 179.86 C509.44,175.81 512.56,172.11 513.01,171.63 C513.47,171.15 516.45,172.82 519.67,175.36 C532.40,185.40 532.41,185.42 529.00,188.50 C526.17,191.06 526.50,192.53 530.43,194.96 C535.19,197.90 540.00,203.62 540.00,206.35 C540.00,207.60 539.08,209.61 537.96,210.81 ZM 549.48 656.14 C550.08,656.74 582.83,657.22 583.76,656.65 C584.57,656.15 568.10,621.24 566.99,621.08 C566.32,620.98 549.00,655.67 549.48,656.14 ZM 599.40 116.57 C597.98,119.01 596.51,121.00 596.14,121.00 C595.77,121.00 592.10,118.01 587.98,114.37 C583.87,110.72 577.69,105.50 574.25,102.77 C570.81,100.05 568.22,97.45 568.50,97.00 C569.78,94.94 578.63,90.00 581.05,90.00 C585.54,90.00 590.42,92.63 596.36,98.24 C601.51,103.11 602.00,103.95 602.00,107.86 C602.00,110.67 601.11,113.67 599.40,116.57 ZM 513.07 146.06 C513.85,146.56 514.72,146.96 515.00,146.95 C516.22,146.90 521.45,141.57 532.33,129.30 C538.77,122.04 544.48,115.82 545.02,115.49 C545.56,115.15 546.00,114.10 546.00,113.13 C546.00,112.17 548.14,109.84 550.75,107.95 L 555.50 104.52 L 552.57 104.17 C550.26,103.90 548.92,104.60 546.26,107.42 C544.40,109.39 542.49,111.00 542.02,111.00 C541.16,111.00 522.65,131.48 515.52,140.33 C512.37,144.24 511.90,145.33 513.07,146.06 ZM 502.14 179.75 C499.91,182.09 497.72,183.97 497.29,183.93 C496.86,183.90 493.81,181.15 490.53,177.83 L 484.56 171.79 L 487.79 168.89 C492.30,164.87 494.74,165.21 500.91,170.75 L 506.19 175.50 ZM 466.25 85.24 L 470.49 88.97 L 473.49 85.92 L 476.50 82.87 L 472.50 79.45 C470.30,77.57 468.14,76.02 467.70,76.01 C467.26,76.01 465.80,77.24 464.46,78.75 L 462.02 81.50 ZM 481.44 97.76 L 485.23 101.23 L 488.36 98.09 L 491.50 94.94 L 487.50 91.51 C485.30,89.62 483.19,88.06 482.82,88.04 C482.44,88.02 481.13,89.42 479.90,91.15 L 477.65 94.29 ZM 608.25 177.84 L 612.50 181.11 L 614.75 178.30 C615.98,176.76 616.99,175.20 617.00,174.83 C617.00,174.47 615.18,172.72 612.95,170.96 L 608.90 167.75 L 606.45 170.05 C605.10,171.31 604.00,172.85 604.00,173.46 C604.00,174.07 605.91,176.04 608.25,177.84 ZM 597.00 190.01 L 601.50 193.86 L 603.75 191.75 C606.70,189.00 606.60,188.22 602.80,184.30 C598.95,180.32 598.06,180.24 594.92,183.58 L 592.50 186.16 ZM 649.86 212.56 C654.24,216.64 654.97,216.72 658.01,213.49 L 660.37 210.98 L 656.99 207.49 C655.13,205.57 653.16,204.00 652.61,204.00 C652.06,204.00 650.40,205.16 648.91,206.58 L 646.21 209.17 ZM 462.00 60.10 C464.48,62.24 466.53,64.00 466.56,64.00 C466.60,64.00 467.65,62.61 468.91,60.90 L 471.20 57.81 L 467.91 54.40 C463.94,50.32 463.07,50.23 459.92,53.60 L 457.50 56.20 ZM 636.75 201.79 L 640.50 205.14 L 643.22 201.89 C646.23,198.31 646.00,197.56 640.77,193.84 L 637.87 191.77 L 635.44 194.06 C634.10,195.32 633.00,196.82 633.00,197.40 C633.00,197.98 634.69,199.95 636.75,201.79 ZM 506.01 96.51 C510.04,100.67 510.92,100.78 514.01,97.49 L 516.37 94.98 L 512.99 91.49 C508.96,87.33 508.08,87.22 504.99,90.51 L 502.63 93.02 ZM 491.50 84.58 C493.70,86.44 495.70,87.98 495.94,87.99 C496.86,88.02 501.00,83.60 501.00,82.58 C501.00,81.39 494.63,76.00 493.23,76.00 C492.74,76.00 491.26,77.17 489.92,78.59 L 487.50 81.18 ZM 611.73 202.46 C613.78,203.86 615.73,205.00 616.06,205.00 C616.38,205.00 617.71,203.88 619.00,202.50 L 621.35 200.00 L 618.92 197.41 C614.52,192.70 612.92,192.37 610.32,195.62 C609.05,197.20 608.01,198.82 608.00,199.21 C608.00,199.61 609.68,201.07 611.73,202.46 ZM 494.77 108.62 C496.82,110.43 498.98,111.94 499.58,111.96 C501.28,112.02 505.49,107.06 504.44,106.23 C503.92,105.82 502.04,104.17 500.25,102.56 L 497.00 99.63 L 494.02 102.48 L 491.05 105.33 ZM 640.13 225.38 L 644.38 229.01 L 647.25 226.26 L 650.13 223.50 L 646.58 220.25 C642.35,216.37 641.06,216.24 638.12,219.37 L 635.89 221.75 ZM 476.66 72.38 C478.77,74.34 480.92,75.81 481.44,75.66 C481.96,75.50 483.31,74.13 484.44,72.61 L 486.50 69.84 L 483.23 66.92 C479.27,63.37 478.01,63.29 475.09,66.41 L 472.83 68.81 ZM 622.01 189.22 L 626.18 192.93 L 628.75 189.89 L 631.31 186.84 L 627.68 183.21 L 624.05 179.58 L 617.84 185.50 ZM 453.94 74.68 C455.21,75.64 456.03,75.36 458.33,73.18 L 461.16 70.50 L 457.41 67.25 C452.91,63.35 452.04,63.27 449.02,66.48 L 446.68 68.96 L 449.53 71.23 C451.10,72.48 453.08,74.03 453.94,74.68 ZM 626.20 214.36 C629.67,217.08 632.03,216.68 633.98,213.04 L 634.00 213.00 C634.57,211.93 634.91,211.30 634.84,210.72 C634.73,209.89 633.77,209.17 631.43,207.38 L 627.87 204.66 L 625.43 207.29 C622.29,210.68 622.36,211.35 626.20,214.36 ZM 527.75 174.25 C529.92,174.75 531.98,173.79 534.35,171.17 C536.47,168.83 536.24,166.18 533.79,164.64 C532.41,163.77 531.47,164.13 529.04,166.47 C525.66,169.70 525.01,173.63 527.75,174.25 Z" fill="rgb(33,32,33)"/>
<path d="M 0.00 382.50 L 0.00 0.00 L 365.50 0.00 L 731.00 0.00 L 731.00 382.50 L 731.00 765.00 L 365.50 765.00 L 0.00 765.00 L 0.00 382.50 ZM 158.83 694.37 C175.45,690.05 185.00,679.33 184.98,665.00 C184.98,659.22 181.29,651.27 176.89,647.55 C169.78,641.53 162.50,639.31 137.50,635.52 C125.00,633.62 119.07,630.99 117.55,626.67 C113.07,613.92 143.30,609.55 163.95,619.97 C167.24,621.64 170.14,623.00 170.38,623.00 C170.74,623.00 176.10,614.80 179.40,609.22 C179.93,608.32 178.16,607.04 173.42,604.89 C149.10,593.86 119.02,595.09 105.02,607.67 C98.82,613.25 96.46,619.56 97.36,628.17 C98.09,635.17 99.82,638.83 104.10,642.43 C111.19,648.39 118.76,650.81 140.36,653.98 C159.53,656.80 164.00,659.36 164.00,667.51 C164.00,670.18 163.24,671.91 161.16,674.00 C152.01,683.14 123.16,680.37 106.80,668.78 C105.86,668.11 104.93,667.78 104.73,668.04 C104.53,668.29 102.22,671.60 99.61,675.40 C95.96,680.70 95.16,682.50 96.18,683.17 C114.64,695.33 138.64,699.63 158.83,694.37 ZM 286.60 694.43 C305.32,689.55 318.42,677.28 323.17,660.14 C330.66,633.13 314.95,606.74 287.08,599.52 C272.85,595.83 253.05,598.08 240.56,604.81 C224.99,613.18 215.00,631.79 216.28,650.00 C217.77,671.05 230.88,687.01 252.40,693.99 C262.25,697.18 275.39,697.35 286.60,694.43 ZM 381.76 662.25 C381.91,644.51 382.36,630.03 382.76,630.06 C383.17,630.09 391.26,639.54 400.74,651.06 C420.21,674.70 420.42,674.84 426.03,667.75 C436.48,654.57 457.36,630.00 458.12,630.00 C458.61,630.00 459.00,644.33 459.00,662.54 L 459.00 695.07 L 468.75 694.79 L 478.50 694.50 L 478.76 646.75 L 479.02 599.00 L 469.26 599.01 L 459.50 599.02 L 441.50 620.10 C431.60,631.69 422.79,642.08 421.93,643.18 C420.41,645.11 419.59,644.27 401.12,622.09 L 381.89 599.00 L 371.95 599.00 L 362.00 599.00 L 362.00 646.33 C362.00,672.37 362.32,693.98 362.70,694.37 C363.09,694.75 367.47,694.94 372.45,694.78 L 381.50 694.50 L 381.76 662.25 ZM 534.77 684.50 L 539.99 674.00 L 566.77 674.00 L 593.54 674.00 L 598.77 684.50 L 603.99 695.00 L 614.43 695.00 C620.18,695.00 625.13,694.59 625.44,694.09 C625.75,693.59 624.27,690.11 622.15,686.34 C620.04,682.58 611.19,665.55 602.50,648.50 C593.80,631.45 584.56,613.45 581.97,608.50 L 577.25 599.50 L 567.88 599.25 C562.72,599.11 557.99,599.33 557.38,599.75 C556.07,600.62 551.81,608.70 527.14,657.11 C517.16,676.70 509.00,693.24 509.00,693.86 C509.00,694.64 512.26,695.00 519.27,695.00 L 529.54 695.00 L 534.77 684.50 ZM 394.33 537.94 C434.22,532.11 472.43,515.35 505.37,489.24 C509.29,486.13 517.45,478.74 523.50,472.82 L 534.50 462.05 L 530.00 461.99 C527.53,461.96 520.78,461.28 515.00,460.48 C492.13,457.31 494.59,457.10 484.53,463.04 C461.13,476.86 432.63,486.42 404.00,490.06 C391.48,491.65 364.91,491.71 353.00,490.17 C312.43,484.94 273.86,468.86 244.00,444.74 C219.60,425.03 200.31,400.83 186.77,372.97 C182.60,364.38 179.83,359.84 178.50,359.41 C175.15,358.33 149.77,345.54 139.18,339.60 C133.69,336.52 129.00,334.00 128.76,334.00 C127.94,334.00 131.05,352.47 133.47,362.00 C144.41,405.02 164.57,440.65 195.46,471.54 C234.75,510.83 287.57,535.43 342.47,540.00 C356.01,541.13 378.72,540.23 394.33,537.94 ZM 623.27 450.60 C652.94,445.88 667.91,435.37 667.98,419.23 C668.05,402.18 647.41,377.41 613.35,353.68 C608.86,350.56 604.75,348.00 604.21,348.00 C603.12,348.00 602.47,350.17 601.51,357.00 L 600.88 361.50 L 606.69 365.98 C623.98,379.31 639.37,397.48 641.91,407.55 C648.83,435.03 602.05,445.23 518.36,434.47 C464.45,427.54 389.50,409.21 328.18,387.96 C320.31,385.23 313.11,383.01 312.18,383.02 C311.16,383.03 309.25,385.35 307.33,388.92 L 304.16 394.81 L 325.33 401.82 C403.38,427.64 487.40,446.06 554.00,451.93 C569.36,453.28 611.48,452.47 623.27,450.60 ZM 564.02 419.75 C591.04,373.44 599.72,311.55 586.85,257.04 C584.04,245.18 578.15,227.21 576.79,226.37 C576.02,225.89 575.89,226.28 576.40,227.59 C576.81,228.64 578.22,234.04 579.54,239.60 C590.99,287.90 584.21,340.44 560.98,383.50 C555.86,392.99 546.45,407.17 539.11,416.48 C536.69,419.55 534.89,422.22 535.11,422.44 C535.44,422.76 551.27,424.39 558.73,424.86 C560.43,424.97 561.69,423.75 564.02,419.75 ZM 281.20 394.82 C291.02,390.59 297.48,380.10 297.42,368.50 C297.35,356.70 292.23,348.22 282.23,343.33 C268.68,336.69 250.47,342.32 243.91,355.17 C237.33,368.08 240.93,384.29 252.01,391.63 C261.94,398.20 271.03,399.19 281.20,394.82 ZM 226.91 358.00 C226.96,356.62 227.69,354.20 228.52,352.60 C229.36,351.01 229.92,349.58 229.77,349.44 C229.62,349.29 225.45,347.39 220.49,345.21 C178.08,326.56 125.85,296.05 100.81,275.30 C80.51,258.48 67.82,240.68 67.65,228.80 C67.40,211.57 85.83,202.46 125.06,200.43 L 138.61 199.73 L 140.77 195.97 L 142.94 192.22 L 140.72 191.62 C136.24,190.42 102.90,191.03 91.55,192.51 C60.83,196.54 45.48,203.60 39.38,216.50 C32.83,230.36 39.88,248.01 59.90,267.88 C83.76,291.58 116.01,312.56 170.00,339.53 C190.98,350.01 208.63,358.15 220.50,362.82 L 225.50 364.79 L 226.15 362.64 C226.51,361.46 226.85,359.38 226.91,358.00 ZM 564.97 331.35 C566.10,327.69 566.91,324.59 566.76,324.47 C565.40,323.30 519.30,300.16 504.50,293.21 C479.63,281.54 463.66,274.79 425.00,259.65 C369.96,238.08 292.12,215.58 233.00,204.16 C202.39,198.24 205.51,198.47 203.07,201.90 C201.83,203.65 201.37,205.11 201.95,205.47 C202.49,205.81 210.71,207.42 220.22,209.06 C291.64,221.40 382.68,250.82 469.00,289.46 C494.57,300.91 536.27,322.22 554.28,333.05 C558.80,335.77 562.59,338.00 562.71,338.00 C562.83,338.00 563.84,335.01 564.97,331.35 ZM 166.57 285.75 C166.72,256.25 172.91,229.69 186.00,202.50 C205.80,161.35 236.97,130.08 279.08,109.11 C308.68,94.37 336.62,87.86 371.00,87.70 C381.17,87.65 393.77,88.19 399.00,88.90 C407.61,90.06 428.77,94.02 435.00,95.63 C440.62,97.08 435.04,94.04 425.76,90.59 C402.61,81.99 386.52,79.49 354.50,79.52 C332.98,79.53 327.76,79.85 317.00,81.79 C251.56,93.60 195.95,131.09 160.97,187.00 C153.62,198.74 143.89,219.38 139.58,232.38 C133.19,251.62 127.81,276.55 129.75,277.92 C139.42,284.78 164.39,300.00 165.96,300.00 C166.26,300.00 166.53,293.58 166.57,285.75 ZM 657.13 227.95 C670.52,212.57 673.00,209.30 673.00,206.97 C673.00,205.93 666.34,199.96 656.25,191.95 C647.04,184.64 633.65,173.85 626.50,167.99 C619.35,162.12 612.21,157.01 610.64,156.62 C608.08,155.98 607.14,156.54 601.91,161.77 L 596.04 167.64 L 592.82 164.32 C591.06,162.49 589.13,161.00 588.55,160.99 C587.97,160.99 586.29,162.45 584.81,164.24 L 582.11 167.50 L 586.29 171.12 L 590.46 174.73 L 585.73 180.48 C583.05,183.74 581.00,187.25 581.00,188.59 C581.00,190.44 585.49,194.71 601.67,208.23 C636.02,236.95 641.20,241.00 643.54,241.00 C645.13,241.00 648.95,237.33 657.13,227.95 ZM 537.96 210.81 C539.08,209.61 540.00,207.60 540.00,206.35 C540.00,203.62 535.19,197.90 530.43,194.96 C526.50,192.53 526.17,191.06 529.00,188.50 C532.41,185.42 532.40,185.40 519.67,175.36 C516.45,172.82 513.47,171.15 513.01,171.63 C512.56,172.11 509.44,175.81 506.08,179.86 L 499.96 187.23 L 506.48 193.20 C510.07,196.49 513.00,199.61 513.00,200.13 C513.00,200.66 509.87,198.59 506.05,195.54 C502.23,192.49 498.87,190.00 498.59,190.00 C497.03,190.00 496.07,194.06 497.10,196.32 C497.98,198.26 497.87,199.27 496.53,201.31 C495.61,202.72 495.00,205.14 495.18,206.69 C495.46,209.12 495.98,209.54 499.11,209.80 C501.85,210.03 503.49,209.46 505.92,207.42 C508.76,205.02 509.40,204.86 511.78,205.95 C514.26,207.08 514.65,206.91 517.32,203.58 C520.20,199.99 522.40,198.80 521.41,201.37 C520.83,202.88 532.26,213.00 534.55,213.00 C535.30,213.00 536.84,212.02 537.96,210.81 ZM 556.11 192.75 C559.39,190.01 594.49,148.66 598.32,143.03 C601.92,137.74 599.95,129.12 594.10,124.50 C592.01,122.85 583.48,115.78 575.15,108.80 C558.90,95.17 556.05,93.75 549.15,95.86 C545.15,97.09 536.00,106.38 513.64,131.94 C502.14,145.08 501.00,146.73 501.00,150.23 C501.00,155.24 497.86,152.27 538.82,185.92 C548.69,194.02 552.70,195.61 556.11,192.75 ZM 502.14 179.75 L 506.19 175.50 L 500.91 170.75 C494.74,165.21 492.30,164.87 487.79,168.89 L 484.56 171.79 L 490.53 177.83 C493.81,181.15 496.86,183.90 497.29,183.93 C497.72,183.97 499.91,182.09 502.14,179.75 ZM 507.41 118.13 L 512.31 113.11 L 516.34 116.56 C518.55,118.45 520.71,120.00 521.13,120.00 C521.55,120.00 523.12,118.39 524.62,116.43 L 527.35 112.85 L 524.42 110.42 C522.68,108.97 520.59,108.14 519.25,108.36 C518.01,108.56 517.00,108.53 517.00,108.29 C517.00,108.05 519.47,104.93 522.50,101.37 C528.37,94.45 529.28,91.24 526.20,88.25 C525.20,87.29 518.36,81.55 510.98,75.50 C503.61,69.45 490.42,58.54 481.66,51.25 C472.20,43.37 464.89,38.00 463.62,38.01 C460.72,38.01 435.00,68.03 435.00,71.41 C435.00,73.25 438.83,76.98 452.25,88.20 C461.74,96.13 470.91,103.71 472.63,105.06 C474.34,106.40 480.23,111.17 485.71,115.64 C491.19,120.12 496.53,123.98 497.59,124.22 C500.26,124.82 501.80,123.87 507.41,118.13 ZM 599.40 116.57 C601.11,113.67 602.00,110.67 602.00,107.86 C602.00,103.95 601.51,103.11 596.36,98.24 C590.42,92.63 585.54,90.00 581.05,90.00 C578.63,90.00 569.78,94.94 568.50,97.00 C568.22,97.45 570.81,100.05 574.25,102.77 C577.69,105.50 583.87,110.72 587.98,114.37 C592.10,118.01 595.77,121.00 596.14,121.00 C596.51,121.00 597.98,119.01 599.40,116.57 ZM 263.10 678.45 C245.49,673.61 236.28,661.70 237.23,645.00 C238.26,626.95 249.96,615.97 269.02,615.17 C283.95,614.55 293.82,619.64 300.09,631.20 C303.26,637.05 303.50,638.14 303.48,646.50 C303.47,653.76 303.02,656.51 301.13,660.71 C295.08,674.18 277.47,682.39 263.10,678.45 ZM 549.48 656.14 C549.00,655.67 566.32,620.98 566.99,621.08 C568.10,621.24 584.57,656.15 583.76,656.65 C582.83,657.22 550.08,656.74 549.48,656.14 ZM 640.13 225.38 L 635.89 221.75 L 638.12 219.37 C641.06,216.24 642.35,216.37 646.58,220.25 L 650.13 223.50 L 647.25 226.26 L 644.38 229.01 L 640.13 225.38 ZM 626.20 214.36 C622.36,211.35 622.29,210.68 625.43,207.29 L 627.87 204.66 L 631.43 207.38 C635.41,210.42 635.40,210.38 633.98,213.04 C632.03,216.68 629.67,217.08 626.20,214.36 ZM 649.86 212.56 L 646.21 209.17 L 648.91 206.58 C650.40,205.16 652.06,204.00 652.61,204.00 C653.16,204.00 655.13,205.57 656.99,207.49 L 660.37 210.98 L 658.01 213.49 C654.97,216.72 654.24,216.64 649.86,212.56 ZM 611.73 202.46 C609.68,201.07 608.00,199.61 608.00,199.21 C608.01,198.82 609.05,197.20 610.32,195.62 C612.92,192.37 614.52,192.70 618.92,197.41 L 621.35 200.00 L 619.00 202.50 C617.71,203.88 616.38,205.00 616.06,205.00 C615.73,205.00 613.78,203.86 611.73,202.46 ZM 636.75 201.79 C634.69,199.95 633.00,197.98 633.00,197.40 C633.00,196.82 634.10,195.32 635.44,194.06 L 637.87 191.77 L 640.77 193.84 C646.00,197.56 646.23,198.31 643.22,201.89 L 640.50 205.14 L 636.75 201.79 ZM 597.00 190.01 L 592.50 186.16 L 594.92 183.58 C598.06,180.24 598.95,180.32 602.80,184.30 C606.60,188.22 606.70,189.00 603.75,191.75 L 601.50 193.86 L 597.00 190.01 ZM 622.01 189.22 L 617.84 185.50 L 620.94 182.54 L 624.05 179.58 L 627.68 183.21 L 631.31 186.84 L 628.75 189.89 L 626.18 192.93 L 622.01 189.22 ZM 608.25 177.84 C605.91,176.04 604.00,174.07 604.00,173.46 C604.00,172.85 605.10,171.31 606.45,170.05 L 608.90 167.75 L 612.95 170.96 C615.18,172.72 617.00,174.47 617.00,174.83 C616.99,175.20 615.98,176.76 614.75,178.30 L 612.50 181.11 L 608.25 177.84 ZM 527.75 174.25 C525.01,173.63 525.66,169.70 529.04,166.47 C531.47,164.13 532.41,163.77 533.79,164.64 C536.24,166.18 536.47,168.83 534.35,171.17 C531.98,173.79 529.92,174.75 527.75,174.25 ZM 513.07 146.06 C511.90,145.33 512.37,144.24 515.52,140.33 C522.65,131.48 541.16,111.00 542.02,111.00 C542.49,111.00 544.40,109.39 546.26,107.42 C548.92,104.60 550.26,103.90 552.57,104.17 L 555.50 104.52 L 550.75 107.95 C548.14,109.84 546.00,112.17 546.00,113.13 C546.00,114.10 545.56,115.15 545.02,115.49 C544.48,115.82 538.77,122.04 532.33,129.30 C521.45,141.57 516.22,146.90 515.00,146.95 C514.72,146.96 513.85,146.56 513.07,146.06 ZM 494.77 108.62 L 491.05 105.33 L 494.02 102.48 L 497.00 99.63 L 500.25 102.56 C502.04,104.17 503.92,105.82 504.44,106.23 C505.49,107.06 501.28,112.02 499.58,111.96 C498.98,111.94 496.82,110.43 494.77,108.62 ZM 481.44 97.76 L 477.65 94.29 L 479.90 91.15 C481.13,89.42 482.44,88.02 482.82,88.04 C483.19,88.06 485.30,89.62 487.50,91.51 L 491.50 94.94 L 488.36 98.09 L 485.23 101.23 L 481.44 97.76 ZM 506.01 96.51 L 502.63 93.02 L 504.99 90.51 C508.08,87.22 508.96,87.33 512.99,91.49 L 516.37 94.98 L 514.01 97.49 C510.92,100.78 510.04,100.67 506.01,96.51 ZM 466.25 85.24 L 462.02 81.50 L 464.46 78.75 C465.80,77.24 467.26,76.01 467.70,76.01 C468.14,76.02 470.30,77.57 472.50,79.45 L 476.50 82.87 L 473.49 85.92 L 470.49 88.97 L 466.25 85.24 ZM 491.50 84.58 L 487.50 81.18 L 489.92 78.59 C491.26,77.17 492.74,76.00 493.23,76.00 C494.63,76.00 501.00,81.39 501.00,82.58 C501.00,83.60 496.86,88.02 495.94,87.99 C495.70,87.98 493.70,86.44 491.50,84.58 ZM 453.94 74.68 C453.08,74.03 451.10,72.48 449.53,71.23 L 446.68 68.96 L 449.02 66.48 C452.04,63.27 452.91,63.35 457.41,67.25 L 461.16 70.50 L 458.33 73.18 C456.03,75.36 455.21,75.64 453.94,74.68 ZM 476.66 72.38 L 472.83 68.81 L 475.09 66.41 C478.01,63.29 479.27,63.37 483.23,66.92 L 486.50 69.84 L 484.44 72.61 C483.31,74.13 481.96,75.50 481.44,75.66 C480.92,75.81 478.77,74.34 476.66,72.38 ZM 462.00 60.10 L 457.50 56.20 L 459.92 53.60 C463.07,50.23 463.94,50.32 467.91,54.40 L 471.20 57.81 L 468.91 60.90 C467.65,62.61 466.60,64.00 466.56,64.00 C466.53,64.00 464.48,62.24 462.00,60.10 Z" fill="rgb(253,253,253)"/>
</g>
</svg>